<?xml version="1.0" encoding="UTF-8"?><svg id="Layer_2" xmlns="http://www.w3.org/2000/svg" viewBox="0 0 23.8 23.65"><g id="Layer_4"><path d="M.21,9.01c-.34-.43-.26-1.05.17-1.38L8.85,1.05c1.8-1.4,4.31-1.4,6.11,0l8.46,6.58c.43.34.51.95.17,1.38-.2.25-.49.38-.78.38-.21,0-.43-.07-.61-.21L13.73,2.6c-1.08-.84-2.59-.84-3.67,0L1.6,9.18c-.43.34-1.05.26-1.39-.17ZM4.57,17.94c.24.19.39.48.39.78v3.94c0,.54-.44.99-.99.99H.99c-.55,0-.99-.44-.99-.99,0-2.25,1.56-4.31,3.71-4.89.3-.08.62-.02.86.17h0ZM23.8,22.67c0,.54-.44.99-.99.99h-2.98c-.55,0-.99-.44-.99-.99v-3.94c0-.31.14-.6.39-.78.25-.19.57-.25.86-.17,2.15.58,3.71,2.64,3.71,4.89ZM4.46,10.84c-1.37,0-2.48,1.1-2.48,2.46s1.11,2.46,2.48,2.46,2.48-1.1,2.48-2.46-1.11-2.46-2.48-2.46ZM21.82,13.31c0-1.36-1.11-2.46-2.48-2.46s-2.48,1.1-2.48,2.46,1.11,2.46,2.48,2.46,2.48-1.1,2.48-2.46ZM11.9,7.89c-1.37,0-2.48,1.1-2.48,2.46s1.11,2.46,2.48,2.46,2.48-1.1,2.48-2.46-1.11-2.46-2.48-2.46ZM16.86,19.71v2.96c0,.54-.44.99-.99.99h-7.93c-.55,0-.99-.44-.99-.99v-2.96c0-2.72,2.22-4.93,4.96-4.93s4.96,2.21,4.96,4.93Z"/></g></svg>