<?xml version="1.0" encoding="UTF-8"?><svg id="Layer_2" xmlns="http://www.w3.org/2000/svg" viewBox="0 0 27.72 27.51"><g id="Layer_4"><path d="M27.19,16.87c-.49-.59-1.23-.89-1.99-.82-4.07.32-7.8,2.41-10.18,5.71v-5.83c3.33-.56,5.77-3.43,5.78-6.78,0-3.21-2.24-5.91-4.44-8.14-1.38-1.34-3.6-1.34-4.98,0-2.2,2.23-4.44,4.93-4.44,8.14,0,3.36,2.45,6.22,5.78,6.78v5.83c-2.38-3.3-6.1-5.39-10.18-5.71-.76-.07-1.51.24-1.99.82-.48.57-.65,1.34-.45,2.06,2.36,8.42,13.31,8.59,13.77,8.59h.01c.46,0,11.42-.17,13.77-8.59.2-.72.03-1.49-.46-2.06ZM9.24,9.15c0-3.05,3.83-6.56,3.86-6.58-.42,1.07-3.06,7.62-.39,7.73.64,0,1.16-.51,1.16-1.15.09-2.04.58-4.05,1.45-5.9,1.65,1.76,3.17,3.78,3.17,5.9,0,2.54-2.07,4.59-4.62,4.59s-4.62-2.06-4.62-4.59ZM2.32,18.33c4.24.34,7.97,2.91,9.78,6.73-2.88-.4-8.4-1.79-9.78-6.73ZM15.65,25.06c1.82-3.81,5.54-6.38,9.77-6.75-1.38,4.94-6.88,6.35-9.77,6.75Z"/></g></svg>