<?xml version="1.0" encoding="UTF-8"?><svg id="Layer_2" xmlns="http://www.w3.org/2000/svg" viewBox="0 0 29.31 29.13"><g id="Layer_4"><path d="M14.66,0C6.56,0,0,6.52,0,14.56s6.56,14.56,14.66,14.56,14.66-6.52,14.66-14.56C29.31,6.52,22.75,0,14.66,0ZM14.66,26.7c-6.75,0-12.21-5.43-12.21-12.14S7.91,2.43,14.66,2.43s12.21,5.43,12.21,12.14c0,6.7-5.47,12.13-12.21,12.14Z"/><path d="M14.66,12.14h-1.22c-.67,0-1.22.54-1.22,1.21s.55,1.21,1.22,1.21h1.22v7.28c0,.67.55,1.21,1.22,1.21s1.22-.54,1.22-1.21v-7.28c0-1.34-1.09-2.43-2.44-2.43Z"/><ellipse cx="14.66" cy="7.89" rx="1.83" ry="1.82"/></g></svg>