<?xml version="1.0" encoding="UTF-8"?><svg id="Layer_2" xmlns="http://www.w3.org/2000/svg" viewBox="0 0 26.82 24.43"><g id="Layer_4"><path d="M21.23,4.44h-3.35v-1.11c0-1.84-1.5-3.33-3.35-3.33h-2.23c-1.85,0-3.35,1.49-3.35,3.33v1.11h-3.35C2.5,4.45,0,6.93,0,9.99v8.88c0,3.06,2.5,5.55,5.59,5.55h15.64c3.08,0,5.58-2.49,5.59-5.55v-8.88c0-3.06-2.5-5.55-5.59-5.55ZM11.17,3.33c0-.61.5-1.11,1.12-1.11h2.23c.62,0,1.12.5,1.12,1.11v1.11h-4.47v-1.11ZM24.58,18.88c0,1.84-1.5,3.33-3.35,3.33H5.59c-1.85,0-3.35-1.49-3.35-3.33v-8.88c0-1.84,1.5-3.33,3.35-3.33h15.64c1.85,0,3.35,1.49,3.35,3.33v8.88ZM17.88,14.44c0,.61-.5,1.11-1.12,1.11h-2.23v2.22c0,.61-.5,1.11-1.12,1.11s-1.12-.5-1.12-1.11v-2.22h-2.23c-.62,0-1.12-.5-1.12-1.11s.5-1.11,1.12-1.11h2.23v-2.22c0-.61.5-1.11,1.12-1.11s1.12.5,1.12,1.11v2.22h2.23c.62,0,1.12.5,1.12,1.11Z"/></g></svg>