<?xml version="1.0" encoding="UTF-8"?><svg id="Layer_2" xmlns="http://www.w3.org/2000/svg" viewBox="0 0 24.55 23.38"><g id="Layer_4"><path d="M13.3,8.13v1.02c0,.56-.46,1.02-1.02,1.02s-1.02-.46-1.02-1.02v-1.02c0-.56.46-1.02,1.02-1.02s1.02.46,1.02,1.02ZM6.14,8.64V3.56c0-1.96,1.61-3.56,3.58-3.56h5.11c1.97,0,3.58,1.6,3.58,3.56v5.08c0,1.92-1.54,3.49-3.46,3.56l-1.63,1.6c-.3.29-.68.43-1.07.43s-.78-.15-1.07-.44l-1.59-1.59c-1.92-.07-3.45-1.64-3.45-3.56h0ZM8.18,8.64c0,.84.69,1.52,1.53,1.52h.3c.27,0,.53.11.73.3l1.52,1.52,1.55-1.52c.19-.19.45-.29.72-.29h.3c.85,0,1.53-.68,1.53-1.52V3.56c0-.84-.69-1.52-1.53-1.52h-5.11c-.85,0-1.53.68-1.53,1.52v5.08ZM21.99,1.7c-.49-.28-1.11-.11-1.4.37-.28.49-.12,1.11.37,1.39.96.55,1.54,1.54,1.54,2.64v10.97c0,1.47-1.06,2.74-2.52,3l-6.43,1.16c-.09.02-.17.01-.26.02v-3.97c0-.56-.46-1.02-1.02-1.02s-1.02.46-1.02,1.02v3.97c-.09-.01-.17,0-.26-.02l-6.43-1.16c-1.46-.26-2.52-1.53-2.52-3V6.1c0-1.1.57-2.09,1.54-2.64.49-.28.66-.9.37-1.39-.28-.48-.91-.65-1.4-.37C.98,2.61,0,4.29,0,6.1v10.97c0,2.46,1.77,4.56,4.2,5l6.43,1.16c.55.1,1.1.15,1.65.15s1.1-.05,1.65-.15l6.43-1.16c2.43-.44,4.2-2.54,4.2-5V6.1c0-1.81-.98-3.49-2.56-4.4h0ZM12.27,6.1c.85,0,1.53-.68,1.53-1.52s-.69-1.52-1.53-1.52-1.53.68-1.53,1.52.69,1.52,1.53,1.52Z"/></g></svg>