<svg xmlns="http://www.w3.org/2000/svg" style="display:none">
  <symbol id="CommunityHubsAndProjects" viewBox="0 0 23.8 23.65"><g id="Layer_4"><path d="M.21,9.01c-.34-.43-.26-1.05.17-1.38L8.85,1.05c1.8-1.4,4.31-1.4,6.11,0l8.46,6.58c.43.34.51.95.17,1.38-.2.25-.49.38-.78.38-.21,0-.43-.07-.61-.21L13.73,2.6c-1.08-.84-2.59-.84-3.67,0L1.6,9.18c-.43.34-1.05.26-1.39-.17ZM4.57,17.94c.24.19.39.48.39.78v3.94c0,.54-.44.99-.99.99H.99c-.55,0-.99-.44-.99-.99,0-2.25,1.56-4.31,3.71-4.89.3-.08.62-.02.86.17h0ZM23.8,22.67c0,.54-.44.99-.99.99h-2.98c-.55,0-.99-.44-.99-.99v-3.94c0-.31.14-.6.39-.78.25-.19.57-.25.86-.17,2.15.58,3.71,2.64,3.71,4.89ZM4.46,10.84c-1.37,0-2.48,1.1-2.48,2.46s1.11,2.46,2.48,2.46,2.48-1.1,2.48-2.46-1.11-2.46-2.48-2.46ZM21.82,13.31c0-1.36-1.11-2.46-2.48-2.46s-2.48,1.1-2.48,2.46,1.11,2.46,2.48,2.46,2.48-1.1,2.48-2.46ZM11.9,7.89c-1.37,0-2.48,1.1-2.48,2.46s1.11,2.46,2.48,2.46,2.48-1.1,2.48-2.46-1.11-2.46-2.48-2.46ZM16.86,19.71v2.96c0,.54-.44.99-.99.99h-7.93c-.55,0-.99-.44-.99-.99v-2.96c0-2.72,2.22-4.93,4.96-4.93s4.96,2.21,4.96,4.93Z"/></g></symbol>

  <symbol id="EcoProjects" viewBox="0 0 27.72 27.51"><g id="Layer_4"><path d="M27.19,16.87c-.49-.59-1.23-.89-1.99-.82-4.07.32-7.8,2.41-10.18,5.71v-5.83c3.33-.56,5.77-3.43,5.78-6.78,0-3.21-2.24-5.91-4.44-8.14-1.38-1.34-3.6-1.34-4.98,0-2.2,2.23-4.44,4.93-4.44,8.14,0,3.36,2.45,6.22,5.78,6.78v5.83c-2.38-3.3-6.1-5.39-10.18-5.71-.76-.07-1.51.24-1.99.82-.48.57-.65,1.34-.45,2.06,2.36,8.42,13.31,8.59,13.77,8.59h.01c.46,0,11.42-.17,13.77-8.59.2-.72.03-1.49-.46-2.06ZM9.24,9.15c0-3.05,3.83-6.56,3.86-6.58-.42,1.07-3.06,7.62-.39,7.73.64,0,1.16-.51,1.16-1.15.09-2.04.58-4.05,1.45-5.9,1.65,1.76,3.17,3.78,3.17,5.9,0,2.54-2.07,4.59-4.62,4.59s-4.62-2.06-4.62-4.59ZM2.32,18.33c4.24.34,7.97,2.91,9.78,6.73-2.88-.4-8.4-1.79-9.78-6.73ZM15.65,25.06c1.82-3.81,5.54-6.38,9.77-6.75-1.38,4.94-6.88,6.35-9.77,6.75Z"/></g></symbol>

 <symbol id="Facility" viewBox="0 0 29.31 29.13"><g id="Layer_4"><path d="M14.66,0C6.56,0,0,6.52,0,14.56s6.56,14.56,14.66,14.56,14.66-6.52,14.66-14.56C29.31,6.52,22.75,0,14.66,0ZM14.66,26.7c-6.75,0-12.21-5.43-12.21-12.14S7.91,2.43,14.66,2.43s12.21,5.43,12.21,12.14c0,6.7-5.47,12.13-12.21,12.14Z"/><path d="M14.66,12.14h-1.22c-.67,0-1.22.54-1.22,1.21s.55,1.21,1.22,1.21h1.22v7.28c0,.67.55,1.21,1.22,1.21s1.22-.54,1.22-1.21v-7.28c0-1.34-1.09-2.43-2.44-2.43Z"/><ellipse cx="14.66" cy="7.89" rx="1.83" ry="1.82"/></g></symbol>

 <symbol id="Health" viewBox="0 0 26.82 24.43"><g id="Layer_4"><path d="M21.23,4.44h-3.35v-1.11c0-1.84-1.5-3.33-3.35-3.33h-2.23c-1.85,0-3.35,1.49-3.35,3.33v1.11h-3.35C2.5,4.45,0,6.93,0,9.99v8.88c0,3.06,2.5,5.55,5.59,5.55h15.64c3.08,0,5.58-2.49,5.59-5.55v-8.88c0-3.06-2.5-5.55-5.59-5.55ZM11.17,3.33c0-.61.5-1.11,1.12-1.11h2.23c.62,0,1.12.5,1.12,1.11v1.11h-4.47v-1.11ZM24.58,18.88c0,1.84-1.5,3.33-3.35,3.33H5.59c-1.85,0-3.35-1.49-3.35-3.33v-8.88c0-1.84,1.5-3.33,3.35-3.33h15.64c1.85,0,3.35,1.49,3.35,3.33v8.88ZM17.88,14.44c0,.61-.5,1.11-1.12,1.11h-2.23v2.22c0,.61-.5,1.11-1.12,1.11s-1.12-.5-1.12-1.11v-2.22h-2.23c-.62,0-1.12-.5-1.12-1.11s.5-1.11,1.12-1.11h2.23v-2.22c0-.61.5-1.11,1.12-1.11s1.12.5,1.12,1.11v2.22h2.23c.62,0,1.12.5,1.12,1.11Z"/></g></symbol>

<symbol id="HistoryAndCulture" viewBox="0 0 24.55 23.38"><g id="Layer_4"><path d="M13.3,8.13v1.02c0,.56-.46,1.02-1.02,1.02s-1.02-.46-1.02-1.02v-1.02c0-.56.46-1.02,1.02-1.02s1.02.46,1.02,1.02ZM6.14,8.64V3.56c0-1.96,1.61-3.56,3.58-3.56h5.11c1.97,0,3.58,1.6,3.58,3.56v5.08c0,1.92-1.54,3.49-3.46,3.56l-1.63,1.6c-.3.29-.68.43-1.07.43s-.78-.15-1.07-.44l-1.59-1.59c-1.92-.07-3.45-1.64-3.45-3.56h0ZM8.18,8.64c0,.84.69,1.52,1.53,1.52h.3c.27,0,.53.11.73.3l1.52,1.52,1.55-1.52c.19-.19.45-.29.72-.29h.3c.85,0,1.53-.68,1.53-1.52V3.56c0-.84-.69-1.52-1.53-1.52h-5.11c-.85,0-1.53.68-1.53,1.52v5.08ZM21.99,1.7c-.49-.28-1.11-.11-1.4.37-.28.49-.12,1.11.37,1.39.96.55,1.54,1.54,1.54,2.64v10.97c0,1.47-1.06,2.74-2.52,3l-6.43,1.16c-.09.02-.17.01-.26.02v-3.97c0-.56-.46-1.02-1.02-1.02s-1.02.46-1.02,1.02v3.97c-.09-.01-.17,0-.26-.02l-6.43-1.16c-1.46-.26-2.52-1.53-2.52-3V6.1c0-1.1.57-2.09,1.54-2.64.49-.28.66-.9.37-1.39-.28-.48-.91-.65-1.4-.37C.98,2.61,0,4.29,0,6.1v10.97c0,2.46,1.77,4.56,4.2,5l6.43,1.16c.55.1,1.1.15,1.65.15s1.1-.05,1.65-.15l6.43-1.16c2.43-.44,4.2-2.54,4.2-5V6.1c0-1.81-.98-3.49-2.56-4.4h0ZM12.27,6.1c.85,0,1.53-.68,1.53-1.52s-.69-1.52-1.53-1.52-1.53.68-1.53,1.52.69,1.52,1.53,1.52Z"/></g></symbol>

<symbol id="NatureAndGreenSpaces" viewBox="0 0 18.46 24.43"><g id="Layer_4"><path d="M17.92,17.6s-1.6-1.85-1.6-1.85c1.19-.87,1.47-2.52.63-3.73-.03-.04-1.93-2.13-1.93-2.13.48-.24.87-.62,1.11-1.09.43-.82.36-1.82-.18-2.58-.02-.03-4.78-5.39-4.78-5.39-1.02-1.06-2.71-1.1-3.78-.09-.03.03-.06.06-.09.09,0,0-4.76,5.36-4.79,5.39-.54.76-.61,1.75-.18,2.58.25.47.63.85,1.11,1.09,0,0-1.91,2.1-1.93,2.13-.84,1.21-.56,2.86.63,3.73,0,0-1.58,1.82-1.6,1.85-.96,1.39-.61,3.3.79,4.25.51.35,1.12.54,1.74.54h5.13v1.02c0,.56.46,1.02,1.03,1.02s1.03-.46,1.03-1.02v-1.02h5.13c1.7,0,3.08-1.37,3.08-3.06,0-.62-.19-1.22-.54-1.73h0ZM16.29,19.81c-.17.34-.52.55-.9.54H3.07c-.57,0-1.03-.46-1.03-1.02,0-.19.05-.38.16-.54l2.19-2.52h5.86c.57,0,1.03-.46,1.03-1.02s-.46-1.02-1.03-1.02H3.76c-.38,0-.68-.3-.68-.68,0-.12.03-.24.09-.34l2.79-3.06h3.27c.57,0,1.03-.46,1.03-1.02s-.46-1.02-1.03-1.02h-4.62c-.19,0-.37-.1-.46-.27-.07-.13-.07-.3.01-.43l4.67-5.25c.19-.22.52-.24.73-.06.02.02.04.04.06.06l4.67,5.25c.08.13.09.29.01.43-.09.17-.26.27-.46.27h-.89c-.57,0-1.03.47-1.02,1.04,0,.25.1.48.26.66l3.09,3.39c.19.33.08.74-.25.93-.1.06-.22.09-.34.09h-.16c-.57,0-1.03.48-1.02,1.04,0,.24.09.46.24.64l2.49,2.87c.2.31.21.69.04,1.01h0Z"/></g></symbol>

<symbol id="Transport" viewBox="0 0 27.68 27.5"><g id="Layer_4"><path d="M23.85,1.33h-.02s-3.13-1.04-3.13-1.04c-1.08-.36-2.25-.39-3.35-.09l-6.43,1.86c-.79.21-1.62.13-2.36-.21l-.58-.27C5.04.37,1.67,1.75.44,4.68.15,5.37,0,6.12,0,6.87v13.84c0,2.55,1.69,4.78,4.15,5.5l3.31,1.03c.56.17,1.14.26,1.72.26.52,0,1.04-.06,1.54-.21l6.69-1.83c.61-.16,1.26-.16,1.87.01l2.7.77c2.48.6,4.97-.92,5.57-3.38.09-.35.13-.71.13-1.08V6.73c0-2.42-1.54-4.58-3.83-5.4ZM4.82,24.02c-1.48-.43-2.5-1.77-2.51-3.31V6.87c-.01-1.15.57-2.23,1.54-2.87.57-.37,1.24-.57,1.92-.57.44,0,.88.09,1.28.25,0,0,.86.37,1.02.42v20.92l-3.26-1.01ZM10.38,25.01V4.44c.39-.02.78-.08,1.16-.18l5.76-1.66v20.55l-6.92,1.86ZM25.38,21.8c0,1.27-1.03,2.29-2.31,2.29-.17,0-.34-.02-.5-.05l-2.96-.83V2.37l3.48,1.12c1.37.49,2.28,1.79,2.29,3.23v15.07Z"/></g></symbol>

<symbol id="Routes" xmlns="http://www.w3.org/2000/svg" viewBox="0 0 42.72 43.21"><g id="Layer_4"><line x1="2.17" y1="31.59" x2="11.79" y2="41.21"/><path d="M11.79,43.21c-.51,0-1.02-.2-1.41-.59L.75,33.01c-.78-.78-.78-2.05,0-2.83s2.05-.78,2.83,0l9.62,9.62c.78.78.78,2.05,0,2.83-.39.39-.9.59-1.41.59Z"/><line x1="11.79" y1="31.59" x2="2.17" y2="41.21"/><path d="M2.17,43.21c-.51,0-1.02-.2-1.41-.59-.78-.78-.78-2.05,0-2.83l9.62-9.62c.78-.78,2.05-.78,2.83,0s.78,2.05,0,2.83l-9.62,9.62c-.39.39-.9.59-1.41.59Z"/><path d="M22.48,38.57h-4c-1.2,0-2.17-.97-2.17-2.17s.97-2.17,2.17-2.17h4c1.2,0,2.17.97,2.17,2.17s-.97,2.17-2.17,2.17Z"/><path d="M33.69,38.57h-3.72c-1.2,0-2.17-.97-2.17-2.17s.97-2.17,2.17-2.17h3.72c.81,0,1.58-.25,2.28-.75.98-.69,2.33-.46,3.02.52.69.98.46,2.33-.52,3.02-1.43,1.01-3.08,1.54-4.78,1.54ZM40.54,30.99s-.07,0-.11,0c-1.2-.06-2.12-1.08-2.06-2.27,0-.13,0-.26,0-.39,0-1.86-.69-3.58-1.9-4.71-.87-.82-.92-2.19-.1-3.06.82-.88,2.19-.92,3.06-.1,2.08,1.95,3.28,4.82,3.28,7.89,0,.21,0,.4-.02.59-.06,1.16-1.02,2.06-2.16,2.06ZM30.93,22.45h-7.49c-1.2,0-2.17-.97-2.17-2.17s.97-2.17,2.17-2.17h7.49c1.2,0,2.17.97,2.17,2.17s-.97,2.17-2.17,2.17ZM15.95,22.45h-6.92c-.26,0-.52-.01-.78-.04-1.19-.12-2.06-1.18-1.94-2.37.12-1.19,1.18-2.05,2.37-1.94.11.01.23.02.35.02h6.92c1.2,0,2.17.97,2.17,2.17s-.97,2.17-2.17,2.17ZM2.89,17.98c-.84,0-1.65-.5-2-1.32C.3,15.27,0,13.78,0,12.22c0-1.65.3-3.16.91-4.56.47-1.1,1.75-1.61,2.85-1.14,1.1.47,1.61,1.75,1.14,2.85-.37.86-.55,1.79-.55,2.77,0,1.05.18,1.97.54,2.82.47,1.1-.05,2.38-1.15,2.84-.28.12-.56.17-.85.17ZM8.5,6.28c-1.11,0-2.06-.85-2.16-1.97-.11-1.19.77-2.25,1.97-2.35.24-.02.47-.03.71-.03h6.97c1.2,0,2.17.97,2.17,2.17s-.97,2.17-2.17,2.17h-6.96c-.11,0-.22,0-.34.02-.07,0-.13,0-.2,0Z"/><path d="M27.54,6.25h-4c-1.2,0-2.17-.97-2.17-2.17s.97-2.17,2.17-2.17h4c1.2,0,2.17.97,2.17,2.17s-.97,2.17-2.17,2.17Z"/><rect x="32.63" y="0" width="8.77" height="8.77" rx="4.38" ry="4.38"/></g></symbol>

<symbol id="Arrow" xmlns="http://www.w3.org/2000/svg" viewBox="0 0 40.8 29.05"><g id="Layer_1-2"><path d="M1.04,6.79L6.45,1.25c.83-.97,2.5-1.11,4.02.42l9.84,9.56L30.57.83c.83-1.11,2.77-1.11,4.02,0l5.41,5.54c.83.83,1.25,2.91.14,4.02l-17.05,17.74c-1.11.97-2.91,1.39-4.02.14l-.14-.14L1.04,10.67c-1.25-1.25-1.53-2.63,0-3.88Z"/></g></symbol>
</svg>