<?xml version="1.0" encoding="UTF-8"?><svg id="Layer_2" xmlns="http://www.w3.org/2000/svg" viewBox="0 0 18.46 24.43"><g id="Layer_4"><path d="M17.92,17.6s-1.6-1.85-1.6-1.85c1.19-.87,1.47-2.52.63-3.73-.03-.04-1.93-2.13-1.93-2.13.48-.24.87-.62,1.11-1.09.43-.82.36-1.82-.18-2.58-.02-.03-4.78-5.39-4.78-5.39-1.02-1.06-2.71-1.1-3.78-.09-.03.03-.06.06-.09.09,0,0-4.76,5.36-4.79,5.39-.54.76-.61,1.75-.18,2.58.25.47.63.85,1.11,1.09,0,0-1.91,2.1-1.93,2.13-.84,1.21-.56,2.86.63,3.73,0,0-1.58,1.82-1.6,1.85-.96,1.39-.61,3.3.79,4.25.51.35,1.12.54,1.74.54h5.13v1.02c0,.56.46,1.02,1.03,1.02s1.03-.46,1.03-1.02v-1.02h5.13c1.7,0,3.08-1.37,3.08-3.06,0-.62-.19-1.22-.54-1.73h0ZM16.29,19.81c-.17.34-.52.55-.9.54H3.07c-.57,0-1.03-.46-1.03-1.02,0-.19.05-.38.16-.54l2.19-2.52h5.86c.57,0,1.03-.46,1.03-1.02s-.46-1.02-1.03-1.02H3.76c-.38,0-.68-.3-.68-.68,0-.12.03-.24.09-.34l2.79-3.06h3.27c.57,0,1.03-.46,1.03-1.02s-.46-1.02-1.03-1.02h-4.62c-.19,0-.37-.1-.46-.27-.07-.13-.07-.3.01-.43l4.67-5.25c.19-.22.52-.24.73-.06.02.02.04.04.06.06l4.67,5.25c.08.13.09.29.01.43-.09.17-.26.27-.46.27h-.89c-.57,0-1.03.47-1.02,1.04,0,.25.1.48.26.66l3.09,3.39c.19.33.08.74-.25.93-.1.06-.22.09-.34.09h-.16c-.57,0-1.03.48-1.02,1.04,0,.24.09.46.24.64l2.49,2.87c.2.31.21.69.04,1.01h0Z"/></g></svg>