<?xml version="1.0" encoding="UTF-8"?><svg id="Layer_2" xmlns="http://www.w3.org/2000/svg" viewBox="0 0 27.68 27.5"><g id="Layer_4"><path d="M23.85,1.33h-.02s-3.13-1.04-3.13-1.04c-1.08-.36-2.25-.39-3.35-.09l-6.43,1.86c-.79.21-1.62.13-2.36-.21l-.58-.27C5.04.37,1.67,1.75.44,4.68.15,5.37,0,6.12,0,6.87v13.84c0,2.55,1.69,4.78,4.15,5.5l3.31,1.03c.56.17,1.14.26,1.72.26.52,0,1.04-.06,1.54-.21l6.69-1.83c.61-.16,1.26-.16,1.87.01l2.7.77c2.48.6,4.97-.92,5.57-3.38.09-.35.13-.71.13-1.08V6.73c0-2.42-1.54-4.58-3.83-5.4ZM4.82,24.02c-1.48-.43-2.5-1.77-2.51-3.31V6.87c-.01-1.15.57-2.23,1.54-2.87.57-.37,1.24-.57,1.92-.57.44,0,.88.09,1.28.25,0,0,.86.37,1.02.42v20.92l-3.26-1.01ZM10.38,25.01V4.44c.39-.02.78-.08,1.16-.18l5.76-1.66v20.55l-6.92,1.86ZM25.38,21.8c0,1.27-1.03,2.29-2.31,2.29-.17,0-.34-.02-.5-.05l-2.96-.83V2.37l3.48,1.12c1.37.49,2.28,1.79,2.29,3.23v15.07Z"/></g></svg>